<svg width="20" height="20" viewBox="0 0 20 20" fill="none" xmlns="http://www.w3.org/2000/svg">
<path d="M6.6834 3.37882H4.39173L4.38339 3.37799C3.34173 3.36966 2.50839 4.21132 2.50839 5.24466C2.50006 5.24466 2.50006 5.24466 2.50839 5.24466V14.828H2.50006C2.49173 15.8613 3.33339 16.6947 4.36673 16.6947V16.6863H6.65006" stroke="black" stroke-width="1.5" stroke-linecap="round" stroke-linejoin="round"/>
<path d="M11.3501 17.4954L16.0334 16.4537V16.4454C16.8918 16.2537 17.5001 15.487 17.5001 14.612V5.4287V5.42037C17.5001 4.53703 16.8834 3.7787 16.0251 3.58703L11.3376 2.54537C10.3209 2.32037 9.32093 2.9537 9.09593 3.97037C9.0626 4.09537 9.04593 4.23703 9.04593 4.37037V15.612L9.0376 15.6037C9.0376 16.637 9.87093 17.4704 10.9043 17.4704C11.0376 17.462 11.1709 17.4537 11.3043 17.4204L11.3501 17.4954Z" stroke="black" stroke-width="1.5" stroke-linecap="round" stroke-linejoin="round"/>
<path d="M11.7584 9.96202C11.8001 10.0037 11.8001 10.0787 11.7501 10.1204C11.7001 10.162 11.6251 10.162 11.5834 10.112C11.5334 10.062 11.5334 9.98702 11.5834 9.94535H11.5751C11.6167 9.89535 11.6917 9.89535 11.7334 9.93702" stroke="black" stroke-width="1.5" stroke-linecap="round" stroke-linejoin="round"/>
</svg>
