<svg width="25" height="24" viewBox="0 0 25 24" fill="none" xmlns="http://www.w3.org/2000/svg">
<path d="M18.2628 18.91L17.9128 18.031C17.7358 17.585 17.4608 17.185 17.1088 16.859L17.0448 16.8C16.4908 16.286 15.7628 16 15.0068 16H9.99284C9.23684 16 8.50884 16.286 7.95384 16.799L7.88984 16.859C7.53784 17.185 7.26384 17.585 7.08584 18.031L6.73584 18.91" stroke="white" stroke-width="1.5" stroke-linecap="round" stroke-linejoin="round"/>
<path d="M14.9749 7.44701C16.3417 8.81385 16.3417 11.0299 14.9749 12.3968C13.608 13.7636 11.392 13.7636 10.0251 12.3968C8.65829 11.0299 8.65829 8.81385 10.0251 7.44701C11.392 6.08017 13.608 6.08017 14.9749 7.44701" stroke="white" stroke-width="1.5" stroke-linecap="round" stroke-linejoin="round"/>
<path d="M18.8639 5.63604C22.3787 9.15076 22.3787 14.8492 18.8639 18.3639C15.3492 21.8787 9.65074 21.8787 6.13604 18.3639C2.62132 14.8492 2.62132 9.15074 6.13604 5.63604C9.65076 2.12132 15.3492 2.12132 18.8639 5.63604" stroke="white" stroke-width="1.5" stroke-linecap="round" stroke-linejoin="round"/>
</svg>
