<svg width="25" height="24" viewBox="0 0 25 24" fill="none" xmlns="http://www.w3.org/2000/svg">
<path d="M13.3001 3V3C13.722 3.00006 14.0985 3.26492 14.2411 3.662L14.7491 5.077V5.077C14.8298 5.29951 14.9863 5.48647 15.1911 5.605L16.6981 6.475V6.475C16.9028 6.59307 17.1426 6.63488 17.3751 6.593L18.8551 6.326V6.326C19.2707 6.25043 19.689 6.44415 19.9001 6.81L20.7001 8.19V8.19C20.9118 8.55486 20.8718 9.01333 20.6001 9.336L19.6291 10.484V10.484C19.4762 10.6645 19.3922 10.8934 19.3921 11.13V12.87V12.8699C19.3922 13.1065 19.4762 13.3354 19.6291 13.516L20.6001 14.664V14.664C20.8718 14.9866 20.9118 15.4451 20.7001 15.81L19.9001 17.19V17.19C19.6891 17.5554 19.2713 17.7491 18.8561 17.674L17.3761 17.407V17.407C17.1436 17.3651 16.9037 17.4069 16.6991 17.525L15.1921 18.395V18.395C14.9872 18.5135 14.8307 18.7004 14.7501 18.923L14.2421 20.338V20.338C14.0994 20.7354 13.7224 21.0003 13.3001 21H11.7001V21C11.2782 20.9999 10.9017 20.7351 10.7591 20.338L10.2511 18.923V18.923C10.1705 18.7008 10.0144 18.5139 9.81011 18.395L8.30212 17.525V17.525C8.09747 17.4069 7.85764 17.3651 7.62512 17.407L6.14512 17.674V17.674C5.72952 17.7496 5.31126 17.5559 5.10012 17.19L4.30012 15.81V15.81C4.0884 15.4451 4.12841 14.9867 4.40012 14.664L5.37112 13.516V13.516C5.52405 13.3355 5.60802 13.1066 5.60812 12.87V11.13V11.1301C5.60803 10.8935 5.52407 10.6646 5.37115 10.484L4.41011 9.336V9.336C4.13841 9.01333 4.0984 8.55486 4.31011 8.19L5.11011 6.81V6.81C5.32113 6.44454 5.73885 6.25089 6.15411 6.326L7.63411 6.593V6.593C7.86663 6.63488 8.10647 6.59307 8.31111 6.475L9.81911 5.605H9.81911C10.0234 5.48609 10.1795 5.29923 10.2601 5.077L10.7681 3.662V3.662C10.9096 3.26801 11.2815 3.00384 11.7001 3L13.3001 3Z" stroke="white" stroke-width="1.5" stroke-linecap="round" stroke-linejoin="round"/>
<path d="M12.5 14.75C14.0188 14.75 15.25 13.5188 15.25 12C15.25 10.4812 14.0188 9.25 12.5 9.25C10.9812 9.25 9.75 10.4812 9.75 12C9.75 13.5188 10.9812 14.75 12.5 14.75Z" stroke="white" stroke-width="1.5" stroke-linecap="round" stroke-linejoin="round"/>
</svg>
