<svg width="39" height="38" viewBox="0 0 39 38" fill="none" xmlns="http://www.w3.org/2000/svg">
<path d="M24.25 21.7829C25.7716 21.2778 27.3312 20.9564 29 20.7695" stroke="white" stroke-width="2" stroke-linecap="round" stroke-linejoin="round"/>
<path d="M10 20.771C11.6688 20.9562 13.2284 21.2792 14.75 21.7843" stroke="white" stroke-width="2" stroke-linecap="round" stroke-linejoin="round"/>
<path d="M29 14.438C27.3312 14.6232 25.7716 14.9462 24.25 15.4513" stroke="white" stroke-width="2" stroke-linecap="round" stroke-linejoin="round"/>
<path d="M14.75 15.4494C13.2284 14.9443 11.6688 14.6229 10 14.436" stroke="white" stroke-width="2" stroke-linecap="round" stroke-linejoin="round"/>
<path d="M19.5 9.70839C15.3928 7.40781 11.7227 6.49264 6.86025 6.33589C5.97675 6.30581 5.25 7.03414 5.25 7.91922V26.6865C5.25 27.5431 5.93558 28.254 6.79217 28.2666C11.6878 28.3395 15.3738 29.242 19.5 31.6676C23.6262 29.242 27.3122 28.3395 32.2078 28.2666C33.0644 28.254 33.75 27.5431 33.75 26.6849V7.91764C33.75 7.03256 33.0233 6.30581 32.1398 6.33431C27.2773 6.49264 23.6072 7.40781 19.5 9.70839V9.70839Z" stroke="white" stroke-width="2" stroke-linecap="round" stroke-linejoin="round"/>
<path d="M19.5 9.70703V31.6679" stroke="white" stroke-width="2" stroke-linecap="round" stroke-linejoin="round"/>
</svg>
