<svg width="49" height="48" viewBox="0 0 49 48" fill="none" xmlns="http://www.w3.org/2000/svg">
<path d="M36.0257 37.82L35.3257 36.062C34.9717 35.17 34.4217 34.37 33.7177 33.718L33.5897 33.6C32.4817 32.572 31.0257 32 29.5137 32H19.4857C17.9737 32 16.5177 32.572 15.4077 33.598L15.2797 33.718C14.5757 34.37 14.0277 35.17 13.6717 36.062L12.9717 37.82" stroke="white" stroke-width="2" stroke-linecap="round" stroke-linejoin="round"/>
<path d="M29.4498 14.8945C32.1834 17.6282 32.1834 22.0603 29.4498 24.794C26.7161 27.5277 22.2839 27.5277 19.5503 24.794C16.8166 22.0603 16.8166 17.6282 19.5503 14.8945C22.2839 12.1608 26.7161 12.1608 29.4498 14.8945" stroke="white" stroke-width="2" stroke-linecap="round" stroke-linejoin="round"/>
<path d="M37.2279 11.2721C44.2573 18.3015 44.2573 29.6985 37.2279 36.7279C30.1984 43.7573 18.8015 43.7573 11.7721 36.7279C4.74264 29.6984 4.74264 18.3015 11.7721 11.2721C18.8015 4.24264 30.1985 4.24264 37.2279 11.2721" stroke="white" stroke-width="2" stroke-linecap="round" stroke-linejoin="round"/>
</svg>
